<?xml version="1.0" encoding="utf-8"?>
<!DOCTYPE svg PUBLIC "-//W3C//DTD SVG 1.1//EN" "http://www.w3.org/Graphics/SVG/1.1/DTD/svg11.dtd">
<svg version="1.1" id="图形" xmlns="http://www.w3.org/2000/svg" xmlns:xlink="http://www.w3.org/1999/xlink" x="0px" y="0px" width="1024px" height="1024px" viewBox="0 0 1024 1024" enable-background="new 0 0 1024 1024" xml:space="preserve">
  <path fill="#ffffff" d="M443.334 643.334l-68.666 0L374.668 712l68.666 0L443.334 643.334 443.334 643.334zM168.666 231.332 100 231.332l0-68.666 68.666 0L168.666 231.332zM168.666 334.334 100 334.334l0-68.666 68.666 0L168.666 334.334zM168.666 437.334 100 437.334l0-68.666 68.666 0L168.666 437.334zM168.666 609c0 18.926 15.39 34.334 34.334 34.334l137.334 0L340.334 712 203 712C146.102 712 100 665.88 100 609l0-137.334 68.666 0L168.666 609zM546.332 712l-68.666 0 0-68.666 68.666 0L546.332 712zM649.332 712l-68.666 0 0-68.666 68.666 0L649.332 712zM535 313.394c0 11.182-7.344 13.612-18.508 13.612l-15.958 0 0-27.208 15.958 0C527.722 299.798 535 302.178 535 313.394zM237.334 574.666l549.334 0 0-549.334L237.334 25.332 237.334 574.666zM582.11 279.546c0-32.488 18.808-48.214 51.062-48.214 31.418 0 51.164 15.692 51.164 48.214L684.336 352.64l-31.148 0 0-73.092c0-16.388-5.532-21.188-20.016-21.188-15.188 0-20.016 7.24-20.016 21.188L613.156 352.64l-31.046 0L582.11 279.546zM469.384 233.848l31.148 0 0 40.27 22.732 0c27.058 0 42.044 16.292 42.044 39.284 0 23.352-15.388 39.246-42.044 39.246l-53.88 0L469.384 233.848 469.384 233.848zM341.038 292.758c0-34.668 22.162-61.426 58.44-61.426 28.298 0 49.69 16.394 52.908 52.238l-30.244 0c-5.062-37.652-49.958-33.058-49.958 9.188 0 19.312 7.778 35.356 27.292 35.356 10.528 0 19.782-6.37 21.726-19.664l30.244 0c-3.084 31.65-25.046 46.856-51.97 46.856C363.434 355.304 341.038 328.282 341.038 292.758zM855.332 265.666 924 265.666l0 68.666-68.668 0L855.332 265.666 855.332 265.666zM168.666-9l0 137.332L100 128.332 100-9c0-56.866 46.102-103 103-103l137.334 0 0 68.666L203-43.334C184.056-43.334 168.666-27.91 168.666-9zM855.332-9c0-18.91-15.388-34.334-34.332-34.334l-137.334 0L683.666-112 821-112c56.898 0 103 46.134 103 103l0 137.332-68.668 0L855.332-9 855.332-9zM855.332 162.666 924 162.666l0 68.666-68.668 0L855.332 162.666 855.332 162.666zM855.332 368.666 924 368.666l0 68.666-68.668 0L855.332 368.666 855.332 368.666zM821 712l-137.334 0 0-68.666L821 643.334c18.944 0 34.332-15.406 34.332-34.334l0-137.334L924 471.666 924 609C924 665.88 877.898 712 821 712zM374.666-112l68.666 0 0 68.666-68.666 0L374.666-112 374.666-112zM580.666-112l68.666 0 0 68.666-68.666 0L580.666-112zM477.666-112l68.666 0 0 68.666-68.666 0L477.666-112 477.666-112z" transform="translate(0, 812) scale(1, -1)"/>
</svg>
